<svg xmlns="http://www.w3.org/2000/svg" width="25.998" height="26" viewBox="0 0 25.998 26">
  <g id="组_2307" data-name="组 2307" transform="translate(-947.557 -527.556)">
    <path id="联合_2-3" data-name="联合 2-3" d="M962.345,548.942l-.623-.624a4.663,4.663,0,0,1,6.594-6.594l4.838,4.836h0a.882.882,0,0,1-1.246,1.246h0l-4.837-4.836a2.9,2.9,0,0,0-4.1,4.1l.288.292a27.462,27.462,0,0,0,4.176.542,1.27,1.27,0,0,1-.368.948l-1.515,1.515a1.262,1.262,0,0,1-1.783,0Z" transform="translate(0.171 0.171)" fill="#1677ff"/>
    <path id="联合_6" data-name="联合 6" d="M958.6,531.966l.624.624a4.663,4.663,0,0,1-6.595,6.594h0l-4.838-4.836h0a.882.882,0,0,1,1.246-1.246h0l4.839,4.836a2.9,2.9,0,0,0,4.1-4.1h0l-.288-.292a27.22,27.22,0,0,0-4.176-.541,1.26,1.26,0,0,1,.368-.948l1.515-1.516a1.262,1.262,0,0,1,1.784,0Z" transform="translate(0 0.035)" fill="#1677ff"/>
    <path id="联合_8" data-name="联合 8" d="M951.968,542.347l.624-.624a4.663,4.663,0,0,1,6.595,6.595l-4.837,4.837h0a.883.883,0,0,1-1.247-1.246h0l4.837-4.838a2.9,2.9,0,1,0-4.1-4.1h0l-.292.288a27.328,27.328,0,0,0-.542,4.177,1.267,1.267,0,0,1-.948-.369l-1.515-1.514a1.263,1.263,0,0,1,0-1.784Z" transform="translate(0.035 0.171)" fill="#1677ff"/>
    <path id="联合_10" data-name="联合 10" d="M968.942,538.594l-.623.624a4.663,4.663,0,0,1-6.595-6.595h0l4.836-4.838h0a.883.883,0,0,1,1.247,1.246h0l-4.837,4.837a2.9,2.9,0,0,0,4.1,4.1l.293-.288a27.437,27.437,0,0,0,.541-4.176,1.265,1.265,0,0,1,.948.369l1.515,1.514a1.262,1.262,0,0,1,0,1.784Z" transform="translate(0.171)" fill="#97d23a"/>
  </g>
</svg>
