<?xml version="1.0" standalone="no"?><!DOCTYPE svg PUBLIC "-//W3C//DTD SVG 1.1//EN" "http://www.w3.org/Graphics/SVG/1.1/DTD/svg11.dtd"><svg t="1614315462326" class="icon" viewBox="0 0 1102 1024" version="1.1" xmlns="http://www.w3.org/2000/svg" p-id="3271" xmlns:xlink="http://www.w3.org/1999/xlink" width="137.75" height="128"><defs><style type="text/css"></style></defs><path d="M551.346484 0a394.951954 394.951954 0 0 0-393.836621 393.836621v433.740772h295.811207a354.5521 354.5521 0 0 1 491.738109-435.723587A394.951954 394.951954 0 0 0 551.346484 0z m-81.171487 866.366211H78.816895v78.816894H0v78.816895h624.710638a355.915285 355.915285 0 0 1-154.659567-157.633789z m581.708338 78.816894a355.667433 355.667433 0 0 1-101.743192 78.816895H1102.940821v-78.816895z" p-id="3272"></path><path d="M794.613095 407.716326a308.079874 308.079874 0 1 0 308.079874 308.079874A308.079874 308.079874 0 0 0 794.613095 407.716326z m38.540965 385.161805H755.948203V523.339223h77.205857z m0 115.622898H755.948203v-77.205858h77.205857z" p-id="3273"></path></svg>