<?xml version="1.0" standalone="no"?><!DOCTYPE svg PUBLIC "-//W3C//DTD SVG 1.1//EN" "http://www.w3.org/Graphics/SVG/1.1/DTD/svg11.dtd"><svg t="1614315543846" class="icon" viewBox="0 0 1024 1024" version="1.1" xmlns="http://www.w3.org/2000/svg" p-id="6004" xmlns:xlink="http://www.w3.org/1999/xlink" width="128" height="128"><defs><style type="text/css"></style></defs><path d="M1023.872 870.144v127.658667H377.472v-127.658667h646.4zM0.597333 604.16l194.261334 1.28 0.597333 88.490667-23.338667 0.64-0.597333 235.690666a27.861333 27.861333 0 0 1-7.765333 18.346667c-10.752 11.562667-30.464 17.066667-59.733334 17.706667h-3.626666c-56.149333 0-69.888-20.181333-72.917334-26.282667l-1.194666-6.698667-0.597334-238.165333-24.490666-0.64L0.597333 604.16zM376.832 124.586667c52.693333 66.602667 44.8 177.024 44.245333 181.930666V382.805333l0.042667 63.872v30.762667c0.128 49.578667 0.256 89.344 0.554667 94.848 0.597333 8.021333 19.370667 32.682667 38.741333 36.992l12.117333 2.517333v34.432l0.256 70.442667v30.506667c0 7.936-0.085333 13.184-0.256 14.421333l-1.194666 16.085333-15.146667-0.64c-30.293333-1.28-129.621333-30.250667-159.36-109.781333-13.312-35.754667-20.565333-94.336-21.205333-178.218667-1.194667-138.752-2.389333-238.037333-2.986667-246.613333 0 0-10.922667-25.344-49.066667-25.941333-41.216 0.597333-44.245333 20.949333-46.677333 32.682666-1.408 9.6-1.706667 80.725333-1.792 149.333334v56.618666l21.76 0.597334-0.597333 108.586666L0.597333 565.504V456.96h24.832C24.832 401.493333 22.997333 225.706667 40.618667 173.952c32.682667-98.688 141.141333-120.874667 176.896-120.874667h6.442666c30.293333 0.426667 100.138667 5.290667 152.874667 71.552z m230.4 304.341333c26.88 0 48.384 25.002667 48.384 54.954667v228.992c0 30.549333-21.504 55.552-48.384 55.552h0.042667-38.314667c-26.88 0-48.384-25.002667-48.384-54.954667v-229.589333c0-30.549333 21.504-54.954667 48.384-54.954667h38.272z m368.213333-83.669333c26.88 0 48.426667 25.002667 48.426667 54.357333v312.661333c0.597333 29.866667-20.906667 54.357333-48.426667 54.357334h-38.229333c-26.922667 0-48.469333-25.045333-48.469333-54.357334v-312.746666c0-30.464 21.546667-54.272 48.469333-54.272h38.229333z m-185.301333-134.357334c26.88 0 48.426667 24.405333 48.426667 53.76v448.213334c0.597333 29.866667-22.101333 53.76-48.426667 53.76h-38.229333c-26.88 0-48.426667-24.448-48.426667-53.76V264.618667c0-29.866667 21.504-53.717333 48.426667-53.717334h38.229333zM708.266667 21.589333v98.944l-43.648 0.597334-0.597334 236.330666-3.584 4.266667c-2.389333 1.834667-20.309333 23.808-63.914666 23.808-58.624 0-72.96-21.333333-75.946667-28.714667l-1.749333-7.296-0.64-228.394666-48.981334-0.64-0.64-98.901334h239.701334z" p-id="6005"></path></svg>