<?xml version="1.0" standalone="no"?><!DOCTYPE svg PUBLIC "-//W3C//DTD SVG 1.1//EN" "http://www.w3.org/Graphics/SVG/1.1/DTD/svg11.dtd"><svg t="1614315579980" class="icon" viewBox="0 0 1024 1024" version="1.1" xmlns="http://www.w3.org/2000/svg" p-id="6761" xmlns:xlink="http://www.w3.org/1999/xlink" width="128" height="128"><defs><style type="text/css"></style></defs><path d="M772.374 887.716a129.035 129.035 0 1 1 91.241-37.793 128.186 128.186 0 0 1-91.241 37.793z m0-232.083a103.049 103.049 0 1 0 103.045 103.05 103.165 103.165 0 0 0-103.045-103.05z" p-id="6762"></path><path d="M846.797686 851.717962m9.187438-9.187438l0 0q9.187438-9.187438 18.374877 0l47.214227 47.214226q9.187438 9.187438 0 18.374877l0 0q-9.187438 9.187438-18.374877 0l-47.214227-47.214227q-9.187438-9.187438 0-18.374876Z" p-id="6763"></path><path d="M616.703 756.911a154.034 154.034 0 0 1 262.953-108.919q4.065 4.063 7.786 8.373a425.522 425.522 0 0 0 20.6-117.986H541.327c-26.5 0-47.982-21.7-47.982-48.546v-386C263.991 103.833 78 292.164 78 524.539s185.991 420.7 415.345 420.7a408.547 408.547 0 0 0 202.722-53.536 154.718 154.718 0 0 1-34.249-25.875 153.027 153.027 0 0 1-45.115-108.917z" p-id="6764"></path><path d="M638.843 438.3h306.8C920.619 251.794 775.174 104.357 590.989 79v310.756c0 26.846 21.428 48.544 47.854 48.544z" p-id="6765"></path></svg>