<?xml version="1.0" standalone="no"?><!DOCTYPE svg PUBLIC "-//W3C//DTD SVG 1.1//EN" "http://www.w3.org/Graphics/SVG/1.1/DTD/svg11.dtd"><svg t="1614315693696" class="icon" viewBox="0 0 1024 1024" version="1.1" xmlns="http://www.w3.org/2000/svg" p-id="8914" xmlns:xlink="http://www.w3.org/1999/xlink" width="128" height="128"><defs><style type="text/css"></style></defs><path d="M545.978182 977.454545h-67.863273a57.856 57.856 0 0 1-57.809454-57.623272v-40.773818c0-8.285091-7.819636-18.990545-15.732364-21.41091l-59.019636-24.203636c-13.032727-6.376727-22.574545-2.56-28.020364 2.792727l-28.951273 28.951273c-21.643636 21.690182-59.904 21.829818-81.640727 0l-48.034909-47.941818a58.088727 58.088727 0 0 1 0-81.733818l28.997818-28.951273c5.771636-5.678545 7.633455-18.618182 3.723636-26.065455l-24.436363-59.066181c-3.258182-10.007273-13.824-17.687273-22.155637-17.687273H104.261818C72.424727 603.694545 46.545455 577.768727 46.545455 545.978182v-67.909818c0-31.790545 25.879273-57.762909 57.716363-57.762909h40.773818a25.832727 25.832727 0 0 0 21.457455-15.77891l24.110545-58.88c4.933818-9.495273 3.025455-22.341818-2.839272-28.113454l-28.858182-28.997818a57.297455 57.297455 0 0 1-16.896-40.680728c0-15.546182 6.004364-30.021818 16.942545-40.96l47.988364-47.988363c21.736727-21.690182 59.904-21.783273 81.640727 0l28.951273 28.765091c5.725091 5.771636 19.456 7.540364 25.879273 4.049454l59.205818-24.529454c9.914182-3.118545 17.687273-13.777455 17.687273-22.109091v-40.773818C420.305455 72.471273 446.277818 46.545455 478.114909 46.545455h67.909818c31.837091 0 57.716364 25.925818 57.716364 57.762909v40.773818c0 8.378182 7.773091 18.944 15.732364 21.410909l58.926545 24.203636c12.893091 6.609455 22.528 2.699636 28.16-2.885818l28.858182-28.904727c22.109091-21.922909 60.183273-21.643636 81.687273 0l47.941818 47.941818c10.984727 10.938182 16.989091 25.460364 16.989091 40.96 0 15.453091-6.050909 29.975273-16.942546 40.913455l-28.858182 28.858181a25.6 25.6 0 0 0-3.770181 25.972364l24.389818 59.112727c3.258182 9.960727 13.870545 17.733818 22.202182 17.733818h40.773818A57.716364 57.716364 0 0 1 977.454545 478.114909v68.049455c0 31.790545-25.879273 57.576727-57.623272 57.576727h-40.773818c-8.378182 0-18.990545 7.726545-21.504 15.778909l-24.064 58.833455c-4.887273 9.541818-3.025455 22.574545 2.932363 28.392727l28.765091 28.672a57.949091 57.949091 0 0 1 0 81.826909l-47.941818 47.941818c-21.597091 21.690182-59.717818 21.922909-81.733818 0.093091l-28.858182-29.090909c-5.445818-5.306182-18.338909-7.586909-26.205091-3.584l-58.88 24.203636c-9.960727 3.351273-17.733818 13.870545-17.733818 22.248728v40.727272A57.949091 57.949091 0 0 1 545.978182 977.454545z m-33.885091-326.283636A139.450182 139.450182 0 0 0 651.357091 512a139.496727 139.496727 0 0 0-139.264-139.310545A139.450182 139.450182 0 0 0 372.829091 512a139.403636 139.403636 0 0 0 139.264 139.170909z" p-id="8915"></path></svg>